<mxfile host="app.diagrams.net" modified="2022-07-26T20:51:53.992Z" agent="5.0 (X11; Linux x86_64) AppleWebKit/537.36 (KHTML, like Gecko) Chrome/103.0.0.0 Safari/537.36" etag="JOPj6nHPD3MPG84q5T_R" version="20.2.1" type="github">
  <diagram id="zz-2xk74o6Imnpkou8Lw" name="PÃ¡gina-1">
    <mxGraphModel dx="1422" dy="800" grid="1" gridSize="10" guides="1" tooltips="1" connect="1" arrows="1" fold="1" page="1" pageScale="1" pageWidth="1169" pageHeight="827" math="0" shadow="0">
      <root>
        <mxCell id="0" />
        <mxCell id="1" parent="0" />
        <mxCell id="OHQK8jDrS-illevPC6z--1" value="Inicio" style="strokeWidth=2;html=1;shape=mxgraph.flowchart.terminator;whiteSpace=wrap;" parent="1" vertex="1">
          <mxGeometry x="535" y="170" width="100" height="60" as="geometry" />
        </mxCell>
        <mxCell id="OHQK8jDrS-illevPC6z--2" value="&quot;Hola Mundo&quot;" style="strokeWidth=2;html=1;shape=mxgraph.flowchart.document2;whiteSpace=wrap;size=0.25;" parent="1" vertex="1">
          <mxGeometry x="535" y="270" width="100" height="60" as="geometry" />
        </mxCell>
        <mxCell id="OHQK8jDrS-illevPC6z--3" value="" style="endArrow=classic;html=1;rounded=0;exitX=0.5;exitY=1;exitDx=0;exitDy=0;exitPerimeter=0;entryX=0.5;entryY=0;entryDx=0;entryDy=0;entryPerimeter=0;" parent="1" source="OHQK8jDrS-illevPC6z--1" target="OHQK8jDrS-illevPC6z--2" edge="1">
          <mxGeometry width="50" height="50" relative="1" as="geometry">
            <mxPoint x="555" y="270" as="sourcePoint" />
            <mxPoint x="605" y="400" as="targetPoint" />
          </mxGeometry>
        </mxCell>
        <mxCell id="OHQK8jDrS-illevPC6z--4" value="FIn" style="strokeWidth=2;html=1;shape=mxgraph.flowchart.terminator;whiteSpace=wrap;" parent="1" vertex="1">
          <mxGeometry x="535" y="370" width="100" height="60" as="geometry" />
        </mxCell>
        <mxCell id="OHQK8jDrS-illevPC6z--5" value="" style="endArrow=classic;html=1;rounded=0;entryX=0.5;entryY=0;entryDx=0;entryDy=0;entryPerimeter=0;" parent="1" source="OHQK8jDrS-illevPC6z--2" target="OHQK8jDrS-illevPC6z--4" edge="1">
          <mxGeometry width="50" height="50" relative="1" as="geometry">
            <mxPoint x="585" y="330" as="sourcePoint" />
            <mxPoint x="595" y="280" as="targetPoint" />
          </mxGeometry>
        </mxCell>
        <mxCell id="OHQK8jDrS-illevPC6z--7" value="Este diagrama de flujo le dice al usuario Hola Mundo." style="text;html=1;resizable=0;autosize=1;align=center;verticalAlign=middle;points=[];fillColor=none;strokeColor=none;rounded=0;fontSize=18;" parent="1" vertex="1">
          <mxGeometry x="360" y="80" width="450" height="40" as="geometry" />
        </mxCell>
      </root>
    </mxGraphModel>
  </diagram>
</mxfile>
